<?xml version="1.0" encoding="utf-8"?>
<!-- Svg Vector Icons : http://www.onlinewebfonts.com/icon -->
<!DOCTYPE svg PUBLIC "-//W3C//DTD SVG 1.1//EN" "http://www.w3.org/Graphics/SVG/1.1/DTD/svg11.dtd">
<svg version="1.1" xmlns="http://www.w3.org/2000/svg" xmlns:xlink="http://www.w3.org/1999/xlink" x="0px" y="0px" viewBox="0 0 1000 1000" enable-background="new 0 0 1000 1000" xml:space="preserve">
<metadata> Svg Vector Icons : http://www.onlinewebfonts.com/icon </metadata>
<g><g transform="translate(0.000000,511.000000) scale(0.100000,-0.100000)"><path d="M759.3,4996.5c-259.7-61.9-465.5-227.8-583.4-467.5L100,4377.2V111.6v-4267.6l63.9-135.9c127.9-269.7,383.6-453.5,687.3-493.5c205.8-26,8113.7-26,8297.5,0c79.9,12,191.8,48,263.7,81.9c141.9,69.9,317.7,239.8,385.6,373.6c107.9,209.8,101.9-20,101.9,4433.5c0,2976.9-6,4149.7-22,4225.7c-71.9,335.6-357.6,611.4-695.3,675.3C9014.8,5036.5,889.2,5028.5,759.3,4996.5z M8901,4537c293.7-111.9,485.5-331.7,537.5-619.4c30-167.8,30-7448.4,0-7616.2c-46-245.8-223.8-475.5-453.5-583.4l-113.9-53.9H4995H1119l-129.9,61.9c-165.8,77.9-309.7,221.8-387.6,387.6l-61.9,129.9v3866v3866l63.9,133.9c117.9,251.7,347.6,421.6,607.4,451.5c69.9,8,1808.1,14,3864,14C8545.3,4573,8817,4569,8901,4537z"/><path d="M2447.6,2489.1c0-191.8,4-219.8,36-229.8c34-10,505.5-91.9,531.5-91.9c20,0,14-4091.8-6-4103.8c-10-6-139.9-32-289.7-55.9l-271.7-44V-2262v-225.8h929h931l-6,223.8l-6,225.8l-283.7,47.9l-285.7,48v877.1v875.1H4995h1268.7v-867.1c0-485.5-8-873.1-18-879.1c-10-6-139.9-32-289.7-55.9l-271.7-44V-2262v-225.8h929.1h931l-6,223.8l-6,225.8l-283.7,47.9l-285.7,48V113.6c0,1128.8,8,2053.9,16,2053.9c20,0,453.5,75.9,519.5,89.9c42,10,44,18,44,229.8v219.8h-929h-929.1v-217.8c0-191.8,4-219.8,36-229.8c34-10,505.5-91.9,531.5-91.9c6,0,10-407.6,8-903.1l-6-905.1l-1262.7-4l-1264.7-2v907.1c0,499.5,8,907.1,16,907.1c20,0,453.5,75.9,519.5,89.9c42,10,44,18,44,229.8v219.8h-929h-929V2489.1z"/></g></g>
</svg>